# xmcd CD database file generated by Grip 2.93
# 
# Track frame offsets:
#       150
#       15978
#       29142
#       49041
#       59927
#       74043
#       85535
#       106652
#       124791
#       141547
#       160604
#       178127
#       192876
# 
# Disc length: 2842 seconds
# 
# Revision: 3
# Processed by: cddbd v1.4PL0 Copyright (c) Steve Scherf et al.
# Submitted via: Grip 2.93
# 
DISCID=b90b180d
DTITLE=Tom Phillips and the Men of Constant Sorrow - Tom Phillips and the Men of Constant Sorrow
DYEAR=1900
DGENRE=
TTITLE0=Gravity of Ruin
TTITLE1=Smoke Stains on my Window
TTITLE2=Steel Guitar
TTITLE3=First One to Fall for your Kisses
TTITLE4=Luck Gone Bad
TTITLE5=Wherever There's a Party
TTITLE6=Goin' Down to Austin
TTITLE7=Hard Part of Town
TTITLE8=Ribbons and Bows
TTITLE9=Neon Rain
TTITLE10=I Can't Win for Losin' You Tonight
TTITLE11=Man of Constant Sorrow
TTITLE12=Ruby Red Heart
EXTD=
EXTT0=
EXTT1=
EXTT2=
EXTT3=
EXTT4=
EXTT5=
EXTT6=
EXTT7=
EXTT8=
EXTT9=
EXTT10=
EXTT11=
EXTT12=
PLAYORDER=
